HIERARCHY
ROOT Hips
{
  OFFSET -102.467 93.6631 130.069
  CHANNELS 6 Xposition Yposition Zposition Zrotation Xrotation Yrotation
  JOINT LeftUpLeg
  {
    OFFSET 8.64259 1.95398 -2.38835
    CHANNELS 3 Zrotation Xrotation Yrotation
    JOINT LeftLeg
    {
      OFFSET 43.7702 0 0
      CHANNELS 3 Zrotation Xrotation Yrotation
      JOINT LeftFoot
      {
        OFFSET 40.6238 0 0
        CHANNELS 3 Zrotation Xrotation Yrotation
        JOINT LeftToeBase
        {
          OFFSET 12.7242 0 0
          CHANNELS 3 Zrotation Xrotation Yrotation
          End Site
          {
            OFFSET 0 0 0
          }
        }
      }
    }
  }
  JOINT RightUpLeg
  {
    OFFSET -8.2249 1.95398 -2.59336
    CHANNELS 3 Zrotation Xrotation Yrotation
    JOINT RightLeg
    {
      OFFSET 43.5653 0 0
      CHANNELS 3 Zrotation Xrotation Yrotation
      JOINT RightFoot
      {
        OFFSET 40.6238 0 0
        CHANNELS 3 Zrotation Xrotation Yrotation
        JOINT RightToeBase
        {
          OFFSET 12.7242 0 0
          CHANNELS 3 Zrotation Xrotation Yrotation
          End Site
          {
            OFFSET 0 0 0
          }
        }
      }
    }
  }
  JOINT Spine
  {
    OFFSET 0.165834 0.87714 6.61349
    CHANNELS 3 Zrotation Xrotation Yrotation
    JOINT Spine1
    {
      OFFSET 7.38963 1.71661e-005 0
      CHANNELS 3 Zrotation Xrotation Yrotation
      JOINT Spine2
      {
        OFFSET 11.9445 1.14441e-005 0
        CHANNELS 3 Zrotation Xrotation Yrotation
        JOINT Spine3
        {
          OFFSET 14.7254 4.19617e-005 0
          CHANNELS 3 Zrotation Xrotation Yrotation
          JOINT Spine4
          {
            OFFSET 10.9679 0 0
            CHANNELS 3 Zrotation Xrotation Yrotation
            JOINT RightShoulder
            {
              OFFSET 2.46616 -1.6653 3.69651
              CHANNELS 3 Zrotation Xrotation Yrotation
              JOINT RightArm
              {
                OFFSET 13.0012 0 0
                CHANNELS 3 Zrotation Xrotation Yrotation
                JOINT RightForeArm
                {
                  OFFSET 28.7848 1.52588e-005 0
                  CHANNELS 3 Zrotation Xrotation Yrotation
                  JOINT RightHand
                  {
                    OFFSET 26.5688 1.52588e-005 0
                    CHANNELS 3 Zrotation Xrotation Yrotation
                    End Site
                    {
                      OFFSET 0 0 0
                    }
                  }
                }
              }
            }
            JOINT LeftShoulder
            {
              OFFSET 2.38034 -1.29275 -3.7523
              CHANNELS 3 Zrotation Xrotation Yrotation
              JOINT LeftArm
              {
                OFFSET 16.3182 6.10351e-005 0
                CHANNELS 3 Zrotation Xrotation Yrotation
                JOINT LeftForeArm
                {
                  OFFSET 27.0901 0 0
                  CHANNELS 3 Zrotation Xrotation Yrotation
                  JOINT LeftHand
                  {
                    OFFSET 24.5451 1.52588e-005 0
                    CHANNELS 3 Zrotation Xrotation Yrotation
                    End Site
                    {
                      OFFSET 0 0 0
                    }
                  }
                }
              }
            }
            JOINT Neck
            {
              OFFSET 5.0226 -0.0266342 0
              CHANNELS 3 Zrotation Xrotation Yrotation
              JOINT Head
              {
                OFFSET 6.69363 2.86102e-005 0
                CHANNELS 3 Zrotation Xrotation Yrotation
                End Site
                {
                  OFFSET 0 0 0
                }
              }
            }
          }
        }
      }
    }
  }
}
MOTION
Frames:	10
Frame Time:	0.0416667
18.2915 78.6616 -13.9623 111.006 -34.3028 117.179 178.491 39.7969 83.8507 -74.4766 16.8985 2.97958 55.6793 5.34943 20.4684 36.6743 -0.986611 -0.502299 176.744 33.5577 71.6468 -71.8054 -13.613 -3.36057 55.7216 8.53032 16.8331 46.1806 -3.15386 3.32898 -0.593069 10.4555 -90.4777 5.95645 -1.38553 -0.898683 -5.71402 -1.42373 -0.83684 -28.2505 -1.0514 -1.27354 -8.23782 -1.0514 -1.27354 101.544 -45.3826 -83.1922 27.4755 -13.7493 19.0843 -4.22229 3.4667 -50.1645 -6.22598 -0.0817847 -3.9816 -86.4999 -48.5606 83.5105 0.925235 -3.24475 1.75834 -4.33253 -16.0437 -20.8488 9.67488 -0.673723 -9.89244 -1.16526 7.23623 -14.3603 -18.4044 5.3227 29.2094 
18.0666 77.2949 0.0296377 102.755 -19.3198 112.862 175.192 43.0611 90.128 -87.2727 22.7634 3.77605 61.2608 12.3499 25.6197 43.8298 -1.85904 -0.485238 177.008 22.5532 72.2373 -34.8065 -21.2651 -3.8168 49.287 12.6853 23.1269 69.6844 -10.4631 0.330024 -0.797168 10.8034 -91.2752 5.23508 -2.12105 -2.457 -6.4364 -2.22709 -2.3613 -28.9583 -1.28501 -2.98049 -8.94561 -1.28499 -2.98048 102.895 -46.886 -80.979 27.6873 -11.2524 24.6051 -6.84099 -0.0494324 -45.3287 -4.10739 -0.0741966 -4.13456 -88.4476 -49.9659 80.7957 8.45085 -9.37577 -20.5235 -7.68377 -22.332 -23.784 8.70152 -0.794914 -11.7628 1.27974 8.87101 -15.5074 -20.5353 5.65245 36.8046 
15.6046 74.8989 12.5843 97.0007 -3.25393 109.08 174.336 50.6153 93.6825 -93.9431 22.8462 3.41956 64.7385 14.7862 22.8388 44.2608 -1.57044 1.52856 174.739 27.0996 73.3231 -49.972 -19.4456 -2.02202 51.9749 10.3311 16.2876 71.3114 -10.0833 1.91491 -1.18236 11.3041 -91.8265 4.20245 -3.10003 -3.56865 -7.46921 -3.25401 -3.42887 -29.9789 -1.88528 -4.3342 -9.96621 -1.88526 -4.33419 102.958 -47.4214 -80.8892 27.4826 -15.1642 23.8515 -14.677 -8.98045 -42.2532 0.338986 -0.0204311 -4.75742 -88.7762 -47.2593 79.744 6.69705 -13.0686 -32.6409 -7.33937 -11.9261 -48.9252 2.96922 -0.548073 -14.0663 11.4822 10.4937 -19.0629 -24.7196 6.77086 43.3099 
13.9562 74.7844 21.5766 90.955 5.84344 108.029 -166.444 56.3094 81.365 -89.4891 19.9848 0.733792 64.4194 12.2372 18.0149 39.6861 -1.07568 1.12259 172.644 33.0386 76.3569 -63.3397 -15.6411 -0.532084 65.7293 3.17886 13.3338 70.2863 -11.2119 -0.502257 -1.27646 11.6644 -92.4059 3.44708 -3.50897 -4.71701 -8.22713 -3.713 -4.55832 -30.7081 -1.93165 -5.5512 -10.6955 -1.93164 -5.55121 102.031 -49.1937 -82.3756 13.9755 -14.7196 4.31869 -12.1775 -20.0123 -27.1501 0.742694 0.0162483 -2.62071 -90.2871 -46.1786 77.1727 -1.89821 -12.2685 -40.4157 -3.55994 -7.68241 -59.3051 3.8625 -0.65577 -14.7168 16.5617 11.8921 -19.9359 -24.6184 8.50845 47.4702 
13.9287 76.3488 27.2504 86.0119 7.10015 106.852 -149.808 55.2269 70.7532 -84.0639 12.8508 -1.68228 62.4908 10.2437 16.3515 45.0607 -2.4767 -2.64774 172.893 38.673 78.5461 -66.3001 -12.8763 -0.185385 64.2672 4.57919 14.4106 75.0292 -8.35745 6.23614 -1.19912 11.5035 -92.4202 3.77072 -3.36673 -4.7362 -7.90397 -3.57168 -4.58375 -30.3825 -1.79018 -5.52682 -10.3699 -1.79017 -5.52682 101.842 -50.9635 -82.6669 3.73721 -8.39812 -19.4761 -0.638392 -22.975 -7.09968 -6.26405 -0.32696 0.9785 -92.8827 -51.1795 74.4689 -0.608368 -5.33909 -38.1684 -3.02298 -7.74507 -48.6333 2.35751 -0.498792 -14.2305 14.0609 13.5639 -19.4221 -24.2449 9.66655 47.9538 
14.7973 77.321 30.7783 84.8272 6.46009 104.54 -152.077 56.3312 71.2358 -85.2281 11.7479 -0.904272 61.2275 11.0341 19.717 55.6968 -2.95111 0.76435 174.318 40.0478 79.2664 -68.4766 -10.2359 -0.900483 68.8648 2.62829 14.6979 71.2568 -7.97328 5.34828 -0.710714 11.5604 -92.0728 3.69333 -2.25013 -4.05614 -7.9817 -2.42632 -3.95338 -30.4697 -0.928537 -4.54384 -10.4571 -0.928543 -4.54386 100.121 -45.6268 -85.5408 7.68639 -7.34976 -30.4577 -1.96508 -22.5356 -8.65189 -5.23611 -0.293417 1.51882 -94.2581 -54.9449 73.4574 -2.37816 -5.31562 -39.9133 -1.21981 -7.85487 -18.2142 8.25168 -0.782735 -11.745 15.391 14.3823 -17.9231 -22.0921 11.4003 47.0252 
16.6397 78.4842 31.7559 84.9316 4.96987 103.892 -157.594 57.64 76.239 -85.1212 9.33969 -0.00585025 62.4198 12.3723 20.1487 60.9055 -1.43774 6.84845 176.613 37.6387 78.8651 -66.3755 -10.2673 -1.95421 70.575 5.19924 20.9066 66.0114 -3.58463 11.6471 -0.231205 11.7651 -91.9311 3.3073 -1.22894 -3.78426 -8.3684 -1.39421 -3.72663 -30.8595 -0.0357895 -3.97836 -10.8469 -0.0358073 -3.97838 98.9396 -40.8446 -87.8304 8.63969 -7.6644 -42.5899 -5.19133 -21.8954 -15.3228 -7.00579 -0.384101 1.31127 -96.359 -60.017 71.9123 -4.21914 -7.29074 -34.45 0.581832 -14.9225 0.801254 10.7506 -0.827406 -10.6149 19.5619 15.735 -13.8356 -20.9421 12.8219 45.2768 
19.3419 79.0235 30.7566 81.965 3.32174 104.05 -156.698 61.8697 76.6099 -84.1967 6.22401 0.154054 63.1777 13.2518 20.4013 64.8812 -0.566073 9.55184 178.282 35.3911 77.9647 -61.5576 -11.8228 -2.67172 76.0384 4.53882 23.9647 62.9043 -0.323344 16.8736 0.0615945 11.4714 -91.7335 3.91034 -0.57435 -3.394 -7.76482 -0.723103 -3.36549 -30.2648 0.47161 -3.40978 -10.2521 0.471608 -3.40978 98.5645 -39.674 -88.593 10.9305 -8.26399 -51.2382 -14.5876 -20.1241 -31.7633 -5.49935 -0.240873 -0.202794 -96.0623 -64.0243 73.3107 -4.22485 -6.48351 -20.8267 0.14792 -12.1049 0.0320919 4.3375 -0.462304 -10.9454 29.8948 15.6393 -16.4606 -25.7707 13.0117 45.1316 
23.753 79.9578 28.3161 79.2503 5.43104 106.539 -157.849 65.0715 79.0242 -84.0196 0.290017 0.860631 62.8363 13.9137 21.9211 67.6632 -0.432919 10.1293 176.162 29.5691 79.4129 -53.8455 -12.5307 -1.68686 75.8419 3.79262 21.9553 69.188 -1.42148 16.0852 0.429921 10.9908 -91.7505 4.88149 0.139977 -3.43638 -6.79396 -0.0113126 -3.43921 -29.2959 1.16574 -3.23585 -9.28322 1.16574 -3.23585 98.3571 -39.655 -88.9656 9.48961 -13.2606 -49.3117 -17.8157 -9.5393 -48.2025 -8.48689 -0.219651 -2.2964 -92.394 -61.2129 77.4545 -8.77483 -5.36195 -10.0597 0.823588 -7.71911 0.00124072 1.54937 -0.246165 -8.91307 43.5942 12.9841 -19.5597 -34.4996 10.969 42.5898 
32.2604 82.7641 23.5264 72.0344 17.1501 108.236 -158.543 60.9729 77.2164 -79.5722 -1.23806 0.0955508 60.6249 10.5666 18.8356 67.9268 -1.03102 8.76996 173.533 14.7235 78.8844 -34.8962 -2.07647 -1.53528 69.1543 8.29535 24.4413 72.7317 -5.49925 10.0253 0.380386 9.61923 -91.7007 7.63179 0.020818 -3.37602 -4.04341 -0.127701 -3.37367 -26.5467 1.03403 -3.21402 -6.53406 1.03406 -3.21401 100.158 -44.2401 -85.5443 11.2054 -20.3551 -30.7653 -16.4153 -5.2016 -51.4316 -7.54719 -0.185264 -2.57657 -90.3637 -56.6649 79.2982 -8.5101 -5.79176 -8.69197 1.33178 -10.2802 0.0873445 3.83524 -0.331109 -8.93203 41.4477 8.38818 -17.0666 -31.7769 7.07868 38.4423 
